<?xml version="1.0" encoding="UTF-8"?>
<svg width="104px" height="24px" viewBox="0 0 104 24" version="1.1" xmlns="http://www.w3.org/2000/svg" xmlns:xlink="http://www.w3.org/1999/xlink">
    <!-- Generator: Sketch 48.2 (47327) - http://www.bohemiancoding.com/sketch -->
    <title>Group</title>
    <desc>Created with Sketch.</desc>
    <defs></defs>
    <g id="Enterprise-Landing" stroke="none" stroke-width="1" fill="none" fill-rule="evenodd" transform="translate(-1029.000000, -1144.000000)">
        <g id="03-customers" transform="translate(241.000000, 1073.000000)">
            <g id="EE-logo-Ferrari" transform="translate(755.000000, 58.000000)">
                <rect id="safe" fill-opacity="0.04" fill="#FFFFFF" x="0" y="0" width="170" height="50"></rect>
                <g id="Group" transform="translate(33.000000, 13.000000)" fill="#020201" fill-rule="nonzero">
                    <path d="M97.75,0.375 C99.25,0.375 100.75,0.375 102.25,0.375 C102.25,1.375 102.25,2.375 102.25,3.375 C101.5,3.375 100.75,3.375 100,3.375 C99.25,3.375 98.5,3.375 97.75,3.375 C97.75,2.375 97.75,1.375 97.75,0.375 Z" id="Shape"></path>
                    <path d="M1,0.5 C32.375,0.5 63.875,0.5 95.25,0.5 C95.25,1.5 95.25,2.5 95.25,3.5 C66.25,3.5 37.25,3.5 8.25,3.5 C8.25,5.875 8.25,8.25 8.25,10.5 C9,10.5 9.875,10.5 10.625,10.5 C10.625,9.75 10.625,9.125 10.625,8.375 C11.5,8.375 12.5,8.375 13.375,8.375 C13.375,10.75 13.375,13 13.375,15.375 C12.5,15.375 11.5,15.375 10.625,15.375 C10.625,14.625 10.625,13.875 10.625,13.125 C9.875,13.125 9,13.125 8.25,13.125 C8.25,15.75 8.25,18.375 8.25,20.875 C9.625,20.875 11,20.875 12.375,20.875 C12.375,21.75 12.375,22.5 12.375,23.375 C8.375,23.375 4.25,23.375 0.25,23.375 C0.25,22.5 0.25,21.75 0.25,20.875 C1.375,20.875 2.375,20.875 3.5,20.875 C3.5,15 3.5,9.25 3.5,3.375 C2.625,3.375 1.875,3.375 1,3.375 C1,2.5 1,1.5 1,0.5 Z" id="Shape"></path>
                    <path d="M40.875,7.25 C42,6.375 43.75,6.375 44.875,7.25 C45.5,7.75 45.75,8.625 45.75,9.5 C45.75,11.75 45.75,14.125 45.75,16.375 C44.375,16.375 42.875,16.375 41.5,16.375 C41.5,14.25 41.5,12.125 41.5,10 C40.375,11 39.625,12.125 38.75,13.25 C38.375,13.75 37.875,14.375 38,15.125 C38,17.125 38,19 38,21 C38.5,21 39,21 39.5,21 C39.5,21.875 39.5,22.625 39.5,23.5 C37,23.5 34.375,23.5 31.875,23.5 C31.875,22.625 31.875,21.875 31.875,21 C32.375,21 33,21 33.5,21 C33.5,17 33.5,13.125 33.5,9.125 C33,9.125 32.375,9.125 31.875,9.125 C31.875,8.375 31.875,7.625 31.875,6.875 C33.875,6.875 36,6.875 38,6.875 C38,8.125 38,9.5 38,10.75 C38.75,9.5 39.625,8.25 40.875,7.25 Z" id="Shape"></path>
                    <path d="M56.625,7.25 C57.75,6.5 59.25,6.5 60.375,7.125 C61.125,7.625 61.375,8.375 61.375,9.25 C61.375,11.625 61.375,14 61.375,16.375 C60,16.375 58.5,16.375 57.125,16.375 C57.125,14.25 57.125,12.125 57.125,10 C56,11.125 55,12.375 54.125,13.625 C53.875,14 53.5,14.5 53.5,15 C53.5,17 53.5,19 53.5,21.125 C54,21.125 54.5,21.125 55,21.125 C55,22 55,22.75 55,23.625 C52.5,23.625 49.875,23.625 47.375,23.625 C47.375,22.75 47.375,22 47.375,21.125 C47.875,21.125 48.5,21.125 49,21.125 C49,17.125 49,13.25 49,9.25 C48.5,9.25 47.875,9.25 47.375,9.25 C47.375,8.5 47.375,7.75 47.375,7 C49.375,7 51.5,7 53.5,7 C53.5,8.25 53.5,9.625 53.5,10.875 C54.5,9.5 55.375,8.125 56.625,7.25 Z" id="Shape"></path>
                    <path d="M67,6.875 C68.75,6.625 70.5,6.625 72.25,6.625 C73.375,6.75 74.625,6.75 75.625,7.5 C76.375,8.125 76.5,9.125 76.5,10 C76.5,13.625 76.5,17.25 76.5,20.875 C77,20.875 77.625,20.875 78.125,20.875 C78.125,21.75 78.125,22.5 78.125,23.375 C74.5,23.375 70.75,23.375 67.125,23.375 C65.75,23.375 64.375,22.75 63.75,21.5 C63.125,20.5 63.375,19.25 63.375,18.125 C63.375,17.125 63.375,16.125 64.125,15.25 C65,14.25 66.375,14 67.625,14 C69.125,14 70.625,14 72.125,14 C72.125,12.5 72.25,11 72,9.5 C71.875,8.625 70.875,8.75 70.25,8.625 C69.5,8.625 68.625,8.5 68.125,9.125 C67.75,10 68,11 67.875,11.875 C66.5,11.875 65.125,11.875 63.75,11.875 C63.75,10.625 63.625,9.375 64.25,8.25 C65,7.5 66,7 67,6.875 Z M67.75,17.875 C67.75,18.75 67.625,19.75 67.875,20.625 C68.375,21.5 69.5,21.25 70.375,21.25 C71.125,21.375 72,21.125 72.125,20.25 C72.375,18.875 72.25,17.375 72.25,16 C71,16 69.875,15.875 68.75,16 C68,16.25 67.625,17.125 67.75,17.875 Z" id="Shape"></path>
                    <path d="M89,7.25 C90.125,6.375 91.875,6.375 93,7.375 C93.625,7.875 93.875,8.75 93.875,9.5 C93.875,11.75 93.875,14.125 93.875,16.375 C92.5,16.375 91,16.375 89.625,16.375 C89.625,14.25 89.625,12.125 89.625,10 C88.5,11 87.625,12.25 86.75,13.5 C86.5,14 86.125,14.375 86.125,14.875 C86.125,16.875 86.125,19 86.125,21 C86.625,21 87.125,21 87.625,21 C87.625,21.875 87.625,22.625 87.625,23.5 C85.125,23.5 82.5,23.5 80,23.5 C80,22.625 80,21.875 80,21 C80.5,21 81.125,21 81.625,21 C81.625,17 81.625,13.125 81.625,9.125 C81.125,9.125 80.5,9.125 80,9.125 C80,8.375 80,7.625 80,6.875 C82,6.875 84.125,6.875 86.125,6.875 C86.125,8.125 86.125,9.375 86.125,10.75 C87,9.5 87.75,8.125 89,7.25 Z" id="Shape"></path>
                    <path d="M16.875,8 C17.625,7.25 18.75,6.875 19.875,6.75 C21.75,6.5 23.625,6.5 25.5,6.75 C26.625,6.875 27.75,7.125 28.625,7.875 C29.25,8.375 29.5,9.25 29.5,10.125 C29.5,12.25 29.5,14.25 29.5,16.375 C26.5,16.375 23.5,16.375 20.625,16.375 C20.625,17.75 20.625,19.125 20.625,20.375 C20.75,21 21.5,21 22,21 C22.875,21 23.875,21.125 24.75,20.75 C25.5,20 25.125,18.875 25.125,18 C26.5,18 28,18 29.375,18 C29.25,19.375 29.5,20.625 29.125,22 C28.75,23 27.625,23.375 26.625,23.625 C24.625,23.875 22.625,24 20.5,23.75 C19.25,23.625 18,23.5 17,22.875 C16.125,22.25 15.875,21.125 15.875,20.125 C15.875,17 15.875,13.875 15.875,10.75 C16.125,9.75 16.125,8.75 16.875,8 Z M20.5,9.875 C20.5,11.5 20.5,13.125 20.375,14.625 C21.875,14.625 23.25,14.625 24.75,14.625 C24.75,12.875 24.875,11.25 24.75,9.625 C24.75,9.125 24.25,8.875 23.75,8.875 C22.875,8.75 22.125,8.75 21.25,8.875 C20.75,9 20.5,9.375 20.5,9.875 Z" id="Shape"></path>
                    <path d="M96.125,6.875 C98.25,6.875 100.25,6.875 102.375,6.875 C102.375,11.625 102.375,16.25 102.375,21 C102.875,21 103.5,21 104,21 C104,21.875 104,22.625 104,23.5 C101.375,23.5 98.75,23.5 96.125,23.5 C96.125,22.625 96.125,21.875 96.125,21 C96.75,21 97.25,21 97.875,21 C97.875,17.125 97.875,13.125 97.875,9.25 C97.25,9.25 96.75,9.25 96.125,9.25 C96.125,8.5 96.125,7.625 96.125,6.875 Z" id="Shape"></path>
                </g>
            </g>
        </g>
    </g>
</svg>