<?xml version="1.0" encoding="UTF-8"?>
<svg width="168px" height="21px" viewBox="0 0 168 21" version="1.1" xmlns="http://www.w3.org/2000/svg" xmlns:xlink="http://www.w3.org/1999/xlink">
    <!-- Generator: Sketch 48.2 (47327) - http://www.bohemiancoding.com/sketch -->
    <title>healthcare-gov-3-01</title>
    <desc>Created with Sketch.</desc>
    <defs></defs>
    <g id="Enterprise-Landing" stroke="none" stroke-width="1" fill="none" fill-rule="evenodd" transform="translate(-622.000000, -1148.000000)">
        <g id="03-customers" transform="translate(241.000000, 1073.000000)">
            <g id="EE-logo-healthcare" transform="translate(380.000000, 58.000000)">
                <rect id="safe" fill-opacity="0.04" fill="#FFFFFF" x="0" y="0" width="170" height="50"></rect>
                <g id="healthcare-gov-3-01" transform="translate(1.000000, 17.000000)" fill-rule="nonzero">
                    <polygon id="Shape" fill="#231F20" points="0.484776119 0.660298507 3.47701493 0.660298507 3.47701493 6.51104478 10.7319403 6.51104478 10.7319403 0.660298507 13.7074627 0.660298507 13.7074627 16.1480597 10.7235821 16.1480597 10.7235821 9.35283582 3.47701493 9.35283582 3.47701493 16.1480597 0.484776119 16.1480597"></polygon>
                    <path d="M27.3313433,11.2501493 L18.1373134,11.2501493 C18.2407881,12.0069351 18.6221463,12.6981469 19.2071642,13.1892537 C19.8354773,13.6865427 20.6214979,13.9416287 21.4220896,13.9080597 C22.4588676,13.9212519 23.4568381,13.5142246 24.1886567,12.7797015 L26.6125373,13.9164179 C26.0622589,14.7242251 25.3140606,15.3774598 24.439403,15.8137313 C23.4994195,16.2459079 22.4730734,16.4574667 21.438806,16.4322388 C19.8083373,16.5030301 18.2208469,15.8982719 17.0507463,14.760597 C15.930893,13.6301412 15.326233,12.0882583 15.3791045,10.4979104 C15.3244162,8.88002074 15.9274988,7.30899068 17.0507463,6.14328358 C18.1577716,4.99725947 19.6955734,4.36939956 21.2883582,4.41313433 C22.9347487,4.34381994 24.5340363,4.97200315 25.6931343,6.14328358 C26.8443114,7.37934445 27.4471599,9.02813527 27.3647761,10.7152239 L27.3647761,11.2668657 L27.3313433,11.2501493 Z M24.4561194,8.98507463 C24.2708993,8.35435371 23.8757395,7.80584826 23.3361194,7.43044776 C22.7679858,7.02682867 22.0854507,6.81591651 21.3886567,6.82865672 C20.6312121,6.81650973 19.8908984,7.0544677 19.2823881,7.50567164 C18.8146672,7.90774077 18.4530023,8.41866421 18.2292537,8.99343284 L24.4644776,8.99343284 L24.4561194,8.98507463 Z" id="Shape" fill="#231F20"></path>
                    <path d="M38.1301493,4.68895522 L41.0053731,4.68895522 L41.0053731,16.1480597 L38.1301493,16.1480597 L38.1301493,14.9361194 C37.6474149,15.4186945 37.0809979,15.8095222 36.4585075,16.0895522 C35.8750744,16.3278827 35.2499011,16.447234 34.6197015,16.440597 C33.1527448,16.445308 31.7548392,15.8179255 30.7832836,14.718806 C29.6995523,13.5620131 29.1167497,12.0238949 29.161791,10.439403 C29.0993732,8.84276532 29.6598049,7.28434553 30.7247761,6.09313433 C31.6931273,5.01017537 33.0835158,4.40035586 34.5361194,4.42149254 C35.2026199,4.41774326 35.8627337,4.55147321 36.4752239,4.81432836 C37.1030875,5.09221382 37.6708589,5.48965382 38.1468657,5.98447761 L38.1468657,4.68895522 L38.1301493,4.68895522 Z M35.1044776,7.05432836 C34.2641892,7.03332031 33.4561165,7.37789472 32.8895522,7.99880597 C32.2886059,8.65646851 31.9703841,9.52407309 32.0035821,10.4143284 C31.9705211,11.3135961 32.291644,12.1899317 32.8979104,12.8549254 C33.4616774,13.4757871 34.2659866,13.8231025 35.1044776,13.8077612 C35.9548565,13.8307884 36.7740051,13.4866851 37.3528358,12.8632836 C37.9750348,12.1811509 38.2972528,11.2777362 38.2471642,10.3558209 C38.2858967,9.4606634 37.9636997,8.58741912 37.3528358,7.9319403 C36.7592592,7.33759555 35.943733,7.01926748 35.1044776,7.05432836 Z" id="Shape" fill="#231F20"></path>
                    <polygon id="Shape" fill="#231F20" points="43.5964179 0.267462687 46.4716418 0.267462687 46.4716418 16.1480597 43.5964179 16.1480597"></polygon>
                    <path d="M52.6567164,4.7641791 L55.3313433,4.7641791 L55.3313433,6.8119403 L52.6567164,6.8119403 L52.6567164,12.5373134 C52.6567164,13.5737313 52.9158209,13.8328358 53.9522388,13.8328358 C54.278447,13.7906747 54.5983731,13.70929 54.9050746,13.5904478 L54.9050746,15.880597 C54.3567231,16.1759822 53.7386669,16.3174998 53.1164179,16.2901493 C51.2191045,16.2901493 49.5976119,15.880597 49.5976119,13.640597 L49.5976119,6.82029851 L48.0680597,6.82029851 L48.0680597,4.7641791 L49.6143284,4.7641791 L49.6143284,1.67164179 L52.6567164,1.67164179 L52.6567164,4.7641791 Z" id="Shape" fill="#231F20"></path>
                    <path d="M57.3791045,0.267462687 L60.2292537,0.267462687 L60.2292537,5.85074627 C60.7277041,5.40530843 61.2914584,5.03886813 61.9008955,4.7641791 C62.4471315,4.52784509 63.0358752,4.40554567 63.6310448,4.40477612 C64.71163,4.38072291 65.753426,4.80773812 66.5062687,5.58328358 C67.2265507,6.4101741 67.5875175,7.49006668 67.5092537,8.5838806 L67.5092537,16.1564179 L64.7008955,16.1564179 L64.7008955,11.1414925 C64.7354836,10.2372739 64.6710203,9.33198529 64.5086567,8.44179104 C64.4187116,8.0283416 64.191967,7.65730508 63.8650746,7.38865672 C63.5383977,7.14953946 63.1413899,7.02602594 62.7367164,7.03761194 C62.1790804,7.02558669 61.63895,7.23263669 61.2322388,7.61432836 C60.8030108,8.04626178 60.5120521,8.5961738 60.3964179,9.19402985 C60.2836816,9.97431784 60.2417198,10.7632003 60.2710448,11.5510448 L60.2710448,16.1564179 L57.3791045,16.1564179 L57.3791045,0.275820896 L57.3791045,0.267462687 Z" id="Shape" fill="#231F20"></path>
                    <path d="M85.5546269,3.34328358 L83.4985075,5.34925373 C82.3110324,3.96713196 80.5896619,3.15814868 78.7677612,3.12597015 C77.3709052,3.10567725 76.0248424,3.64931999 75.0338709,4.6339996 C74.0428994,5.61867921 73.4906941,6.96125206 73.5020896,8.35820896 C73.4853974,9.3180355 73.718711,10.2656919 74.1791045,11.1080597 C74.6126534,11.9108523 75.2646726,12.5744629 76.0597015,13.0220896 C76.8963345,13.4825817 77.8379108,13.7186957 78.7928358,13.7074627 C79.6008054,13.7186827 80.4017581,13.5562119 81.1414925,13.2310448 C82.0145395,12.7888969 82.8036985,12.1977347 83.4734328,11.4841791 L85.4710448,13.5737313 C84.5470179,14.5312814 83.4566662,15.3129362 82.2531343,15.880597 C81.1465509,16.327692 79.9610417,16.546599 78.7677612,16.5241791 C76.5606665,16.5996631 74.4200328,15.7621553 72.8501493,14.2089552 C71.3109139,12.658483 70.4793521,10.5417803 70.5516418,8.35820896 C70.5235204,6.91577358 70.8844189,5.49239 71.5964179,4.23761194 C72.3154191,3.01901607 73.3527401,2.01925821 74.5970149,1.34567164 C75.871934,0.625464565 77.3118413,0.24820886 78.7761194,0.250746269 C81.3783775,0.244281615 83.8539029,1.37368285 85.5546269,3.34328358 Z" id="Shape" fill="#006593"></path>
                    <path d="M96.2949254,4.68895522 L99.1701493,4.68895522 L99.1701493,16.1480597 L96.2949254,16.1480597 L96.2949254,14.9361194 C95.812191,15.4186945 95.245774,15.8095222 94.6232836,16.0895522 C94.0398505,16.3278827 93.4146772,16.447234 92.7844776,16.440597 C91.3175209,16.445308 89.9196154,15.8179255 88.9480597,14.718806 C87.8643284,13.5620131 87.2815258,12.0238949 87.3265672,10.439403 C87.2641493,8.84276532 87.824581,7.28434553 88.8895522,6.09313433 C89.8579034,5.01017537 91.2482919,4.40035586 92.7008955,4.42149254 C93.3673961,4.41774326 94.0275098,4.55147321 94.64,4.81432836 C95.2678636,5.09221382 95.835635,5.48965382 96.3116418,5.98447761 L96.3116418,4.68895522 L96.2949254,4.68895522 Z M93.2692537,7.04597015 C92.4289654,7.0249621 91.6208926,7.36953651 91.0543284,7.99044776 C90.453382,8.6481103 90.1351602,9.51571488 90.1683582,10.4059701 C90.1443688,11.3139447 90.4809502,12.1944657 91.1044776,12.8549254 C91.6667244,13.4788808 92.4712429,13.8293339 93.3110448,13.8161194 C94.1614236,13.8391466 94.9805722,13.4950433 95.559403,12.8716418 C96.181602,12.1895091 96.5038199,11.2860944 96.4537313,10.3641791 C96.4924639,9.46902161 96.1702669,8.59577733 95.559403,7.94029851 C94.9593133,7.33406643 94.1295651,7.01189315 93.2776119,7.05432836 L93.2692537,7.04597015 Z" id="Shape" fill="#006593"></path>
                    <path d="M101.401791,4.68895522 L103.867463,4.68895522 L103.867463,6.82865672 C104.094644,6.3069405 104.462099,5.85847208 104.928955,5.53313433 C105.357853,5.2419544 105.864889,5.08751241 106.383284,5.09014925 C107.048709,5.19910064 107.683761,5.44685642 108.247164,5.81731343 L107.352836,8.32477612 C106.921548,7.95076485 106.389475,7.71234967 105.823284,7.63940299 C105.321044,7.68146349 104.886537,8.00572253 104.703284,8.47522388 C104.39403,9.02686567 104.243582,9.40298507 104.243582,10.9826866 L104.243582,16.1731343 L101.393433,16.1731343 L101.393433,4.68895522 L101.401791,4.68895522 Z" id="Shape" fill="#006593"></path>
                    <path d="M121.152239,11.2501493 L111.958209,11.2501493 C112.061684,12.0069351 112.443042,12.6981469 113.02806,13.1892537 C113.656373,13.6865427 114.442393,13.9416287 115.242985,13.9080597 C116.279763,13.9212519 117.277734,13.5142246 118.009552,12.7797015 L120.433433,13.9164179 C119.883154,14.7242251 119.134956,15.3774598 118.260299,15.8137313 C117.320315,16.2459079 116.293969,16.4574667 115.259701,16.4322388 C113.629233,16.5030301 112.041742,15.8982719 110.871642,14.760597 C109.751789,13.6301412 109.147129,12.0882583 109.2,10.4979104 C109.145312,8.88002074 109.748394,7.30899068 110.871642,6.14328358 C111.978667,4.99725947 113.516469,4.36939956 115.109254,4.41313433 C116.755644,4.34381994 118.354932,4.97200315 119.51403,6.14328358 C120.665207,7.37934445 121.268055,9.02813527 121.185672,10.7152239 L121.185672,11.2668657 L121.152239,11.2501493 Z M118.277015,8.98507463 C118.091795,8.35435371 117.696635,7.80584826 117.157015,7.43044776 C116.588881,7.02682867 115.906346,6.81591651 115.209552,6.82865672 C114.452108,6.81650973 113.711794,7.0544677 113.103284,7.50567164 C112.618369,7.89952909 112.239194,8.40796818 112,8.98507463 L118.235224,8.98507463 L118.277015,8.98507463 Z" id="Shape" fill="#006593"></path>
                    <path d="M125.966567,14.4513433 C125.591812,14.0794958 124.987292,14.0794958 124.612537,14.4513433 C124.23872,14.8318007 124.23872,15.4416321 124.612537,15.8220896 C124.884436,16.1211831 125.314405,16.2182117 125.688401,16.0648733 C126.062397,15.9115349 126.3005,15.5405969 126.284179,15.1367164 C126.280317,14.8735494 126.164861,14.6244074 125.966567,14.4513433 Z" id="Shape" fill="#676767"></path>
                    <path d="M140.250746,17.2346269 C140.570134,16.1275127 140.705666,14.9754875 140.65194,13.8244776 L140.65194,5.01492537 L139.816119,5.01492537 L139.816119,7.60597015 L139.222687,6.9038806 C138.670435,6.21035651 137.978428,5.64080292 137.191642,5.23223881 C134.597355,4.09292714 131.561025,5.07748846 130.128955,7.52238806 C129.636714,8.37308875 129.379952,9.33955203 129.385075,10.3223881 C129.375469,11.285591 129.620557,12.234229 130.095522,13.0722388 C130.577477,13.9017294 131.276882,14.5837942 132.118209,15.0447761 C133.722383,15.9475935 135.662474,16.0253215 137.333731,15.2537313 C138.081922,14.9033237 138.73749,14.3823048 139.247761,13.7325373 L139.849552,12.9719403 L139.849552,14.5349254 C139.910941,15.5259943 139.745131,16.5179911 139.364776,17.4352239 C138.993566,18.1052055 138.428295,18.6471673 137.743284,18.9898507 C136.904633,19.4123754 135.973894,19.6192063 135.035224,19.5916418 C134.095661,19.6202511 133.163282,19.4194312 132.318806,19.0065672 C131.604791,18.6146 131.00991,18.0370454 130.597015,17.3349254 L129.761194,17.3349254 C130.031196,17.8785072 130.386771,18.3751835 130.814328,18.8059701 C131.331342,19.2749111 131.940555,19.6307598 132.602985,19.8507463 C133.410304,20.1245086 134.258015,20.2601424 135.110448,20.2519403 C136.255463,20.2750461 137.385181,19.9861157 138.378507,19.4161194 C139.235465,18.9265981 139.896886,18.1559248 140.250746,17.2346269 Z M138.286567,13.6740299 C136.329495,15.3955875 133.398266,15.3955875 131.441194,13.6740299 C130.560087,12.8154073 130.078225,11.6274187 130.112239,10.3976119 C130.107796,9.55057649 130.326911,8.71736184 130.747463,7.98208955 C131.166457,7.24596232 131.779337,6.63886335 132.519403,6.22686567 C134.004808,5.39626558 135.814894,5.39626558 137.300299,6.22686567 C137.999945,6.6206618 138.578144,7.19886064 138.97194,7.89850746 C139.374667,8.63906452 139.579092,9.47116253 139.565373,10.3140299 C139.618789,11.5621493 139.156319,12.7772653 138.286567,13.6740299 Z" id="Shape" fill="#676767"></path>
                    <path d="M153.707463,6.5361194 C152.638133,5.38135586 151.135622,4.72492746 149.561791,4.72492746 C147.98796,4.72492746 146.485449,5.38135586 145.416119,6.5361194 C143.390832,8.77927365 143.427201,12.2015869 145.499701,14.401194 C146.573075,15.4827765 148.033817,16.091098 149.557612,16.091098 C151.081407,16.091098 152.542149,15.4827765 153.615522,14.401194 C155.666755,12.1942654 155.706545,8.79039501 153.707463,6.5361194 Z M151.985672,14.7522388 C150.481739,15.5916602 148.650201,15.5916602 147.146269,14.7522388 C146.407644,14.3290307 145.800242,13.7100597 145.391045,12.9635821 C144.960769,12.1984896 144.738847,11.3338608 144.747463,10.4561194 C144.725836,9.14093462 145.235016,7.87250458 146.16,6.93731343 C147.045135,6.00667616 148.273264,5.47984923 149.557612,5.47984923 C150.84196,5.47984923 152.070089,6.00667616 152.955224,6.93731343 C153.884078,7.87059085 154.396483,9.13954746 154.376119,10.4561194 C154.384735,11.3338608 154.162814,12.1984896 153.732537,12.9635821 C153.32527,13.7086967 152.720951,14.3274728 151.985672,14.7522388 Z" id="Shape" fill="#676767"></path>
                    <polygon id="Shape" fill="#676767" points="167.456716 5.03164179 166.612537 5.03164179 162.600597 13.8495522 158.538507 5.03164179 157.711045 5.03164179 162.592239 15.638209"></polygon>
                </g>
            </g>
        </g>
    </g>
</svg>