<?xml version="1.0" encoding="UTF-8"?>
<svg width="168px" height="29px" viewBox="0 0 168 29" version="1.1" xmlns="http://www.w3.org/2000/svg" xmlns:xlink="http://www.w3.org/1999/xlink">
    <!-- Generator: Sketch 48.2 (47327) - http://www.bohemiancoding.com/sketch -->
    <title>skyscaneer</title>
    <desc>Created with Sketch.</desc>
    <defs></defs>
    <g id="Enterprise-Landing" stroke="none" stroke-width="1" fill="none" fill-rule="evenodd" transform="translate(-249.000000, -1142.000000)">
        <g id="03-customers" transform="translate(241.000000, 1073.000000)">
            <g id="EE-logo-skyscanner" transform="translate(7.000000, 58.000000)">
                <rect id="safe" fill-opacity="0.04" fill="#FFFFFF" x="0" y="0" width="170" height="50"></rect>
                <g id="skyscaneer" transform="translate(1.000000, 11.000000)" fill="#00B2D6" fill-rule="nonzero">
                    <path d="M55.8834882,11.2384834 C55.8455334,11.3608837 55.7581797,11.4618681 55.6425202,11.517052 C55.5268607,11.572236 55.3934087,11.5766033 55.2743886,11.5290995 C54.5028626,11.2321137 53.630218,11.0195261 52.8141043,11.0195261 C51.4095924,11.0195261 50.0862938,11.4415166 50.0862938,12.8476209 C50.0862938,13.6072038 50.5082844,14.001327 51.8594502,14.4241137 L52.843564,14.7322464 C54.8125877,15.3501043 55.6565687,16.2506161 55.6565687,17.9935166 C55.6565687,21.0015924 53.5466161,23.0558104 49.7232227,23.0558104 C48.2207773,23.0558104 46.9356967,22.8201327 45.8456872,22.4403412 C45.5805498,22.347981 45.4531564,22.0533839 45.531981,21.7834692 L45.9818389,20.2229005 C46.0566825,19.9641327 46.34491,19.8415166 46.5949194,19.9418389 C47.5798294,20.3399431 48.6714313,20.6098578 49.6380284,20.6098578 C51.354654,20.6098578 52.5625024,20.0190711 52.5625024,18.6400379 C52.5625024,17.8247204 52.0003791,17.5165877 50.7344076,17.1216682 L49.6650995,16.784872 C47.7804739,16.166218 46.9364929,15.0411754 46.9364929,13.2417441 C46.9364929,10.175545 49.4970995,8.51783886 52.8714313,8.51783886 C53.8865972,8.51783886 55.046673,8.74475829 56.0140664,9.07677725 C56.2807962,9.16754502 56.409782,9.4637346 56.3277725,9.73285308 L55.8834882,11.2384834 Z M62.5294408,3.211109 C62.7921896,3.211109 62.9872607,3.44997156 62.9386919,3.70714692 L60.8685498,14.4050047 C62.8192607,12.9821801 64.5231469,11.3101422 66.027981,9.36978199 C66.2197292,9.1213619 66.5159482,8.9760469 66.829763,8.97645498 L69.0814408,8.97645498 C69.2980095,8.97645498 69.418237,9.220891 69.2940284,9.3984455 C67.8138768,11.4853081 66.1203412,13.4113365 64.3280758,14.9663318 L67.1800948,22.1457441 C67.2215512,22.2517992 67.2080979,22.37147 67.1441288,22.4656733 C67.0801596,22.5598767 66.9738872,22.6165182 66.860019,22.6170995 L64.4674123,22.6170995 C64.1642693,22.6160322 63.8934663,22.427358 63.7874502,22.1433555 L61.8247962,16.7952227 C61.2977062,17.1503318 60.7530995,17.4791659 60.1933649,17.7801327 L59.3605308,22.1202654 C59.3044336,22.4074818 59.0536237,22.6153242 58.7609858,22.6170995 L56.7051754,22.6170995 C56.5808036,22.6168249 56.463065,22.5609724 56.3841738,22.4648237 C56.3052826,22.368675 56.273498,22.2422962 56.2975166,22.1202654 L59.8724929,3.70714692 C59.9276155,3.41836986 60.1804362,3.20969248 60.4744265,3.2103128 L62.5294408,3.2103128 L62.5294408,3.211109 Z M73.0497441,8.97565877 C73.3124929,8.97565877 73.5091564,9.21611374 73.4589953,9.47408531 L72.0656303,16.65509 C71.9525687,17.1885498 71.8403033,17.8637346 71.8403033,18.5118483 C71.8403033,19.354237 72.3180284,19.9179526 73.4430711,19.9179526 C74.5402464,19.9179526 75.8324929,19.4394313 76.7895355,18.5405118 L78.5770237,9.4732891 C78.6338651,9.18553368 78.8856443,8.97771594 79.1789573,8.97645498 L81.2347678,8.97645498 C81.4967204,8.97645498 81.6925877,9.21531754 81.6416303,9.47408531 L79.7992038,18.9330427 C79.5738768,20.0294218 79.3214787,21.2667299 79.0969479,22.2516398 C78.0276398,26.6952796 76.0028815,28.6635071 71.9525687,28.6635071 C71.0608152,28.6635071 70.1730427,28.5520379 69.4007204,28.3450237 C69.1153664,28.2695981 68.9413121,27.9813867 69.0073934,27.6937251 L69.3593175,26.2573649 C69.4204949,25.9939403 69.6833547,25.829742 69.9469194,25.8903128 C70.5305403,26.0296493 71.197763,26.1323602 71.812436,26.1323602 C74.2050427,26.1323602 75.6087583,25.1195829 76.1151469,22.3647014 L76.3141991,21.3232607 C75.2735545,22.2229763 73.7249289,22.813763 72.2638863,22.813763 C69.9007393,22.813763 68.635564,21.6329858 68.635564,19.7483602 C68.635564,18.6233175 68.860891,17.3852133 69.1132891,16.093763 L70.3951848,9.47488152 C70.4510187,9.18661693 70.702704,8.9779348 70.9963223,8.97645498 L73.0497441,8.97645498 L73.0497441,8.97565877 Z M91.6061801,11.2488341 C91.5683971,11.3713796 91.4811143,11.4725558 91.3654342,11.5279007 C91.2497541,11.5832457 91.1162068,11.5877217 90.9970806,11.5402464 C90.2263507,11.2424645 89.3521137,11.0290806 88.5367962,11.0290806 C87.1322844,11.0290806 85.8105782,11.4526635 85.8105782,12.8579716 C85.8105782,13.6175545 86.2301801,14.0116777 87.5805498,14.4344645 L88.5654597,14.7425972 C90.5336872,15.360455 91.3784645,16.2609668 91.3784645,18.0046635 C91.3784645,21.0127393 89.2685118,23.0669573 85.4451185,23.0669573 C83.9442654,23.0669573 82.6567962,22.8304834 81.5691754,22.4506919 C81.3032417,22.3583318 81.1758483,22.0637346 81.2530806,21.7938199 L81.7045308,20.2332512 C81.7785782,19.9744834 82.0683981,19.8518673 82.3176114,19.9521896 C83.3017251,20.3502938 84.393327,20.6202085 85.359128,20.6202085 C87.0749573,20.6202085 88.2843981,20.0294218 88.2843981,18.6503886 C88.2843981,17.8350711 87.7230711,17.5269384 86.4578957,17.132019 L85.3861991,16.7952227 C83.5031659,16.1765687 82.659981,15.0515261 82.659981,13.2520948 C82.659981,10.1858957 85.2189953,8.52818957 88.5949194,8.52818957 C89.6100853,8.52818957 90.7685687,8.755109 91.7367583,9.08712796 C92.0010995,9.17789573 92.1300853,9.47408531 92.0496682,9.74320379 L91.6061801,11.2488341 Z M103.609024,11.5569668 C103.573981,11.6750155 103.488763,11.7716603 103.376028,11.8212021 C103.263294,11.8707439 103.134469,11.8681617 103.02381,11.8141422 C102.283336,11.4757536 101.445725,11.2822749 100.491071,11.2822749 C97.5108626,11.2822749 95.7082464,13.8428815 95.7082464,17.1049479 C95.73691,19.0469005 96.4407583,20.3399431 98.635109,20.3678104 C99.6064834,20.3916967 100.620057,20.1950332 101.536493,19.8797346 C101.761024,19.8032986 102.006256,19.9601517 101.979185,20.1950332 L101.785706,21.8336303 C101.749889,22.1506446 101.535795,22.4191902 101.23473,22.5247393 C100.215583,22.8790521 99.104872,23.0669573 97.8476588,23.0669573 C94.190673,23.0669573 92.4756398,20.9864645 92.4756398,17.5540095 C92.4756398,12.6907678 95.2321137,8.52898578 100.518142,8.52898578 C101.800038,8.52898578 102.882882,8.76784834 103.762692,9.14604739 C104.035791,9.26627488 104.17672,9.57042654 104.093118,9.85706161 L103.609024,11.5569668 Z M105.849555,9.98923223 C105.855911,9.68293941 106.052206,9.41295462 106.341611,9.31245498 C107.688796,8.86259716 109.389498,8.52898578 110.868057,8.52898578 C113.679469,8.52898578 115.507564,9.37217062 115.507564,11.8189194 C115.507564,12.3245118 115.423166,12.9439621 115.283829,13.6183507 L114.18745,19.3829005 C114.017858,20.2483791 114.10146,20.7324739 114.475678,20.9219716 C114.704986,21.0374218 114.897668,21.2579716 114.845118,21.5103697 L114.680303,22.3201137 C114.616607,22.6322275 114.380133,22.8901991 114.068019,22.9570806 C113.737029,23.027227 113.399929,23.0645641 113.061611,23.0685498 C111.794047,23.0685498 111.176986,22.4769668 111.093384,21.4363223 L111.008986,21.4363223 C110.081403,22.4490995 108.676095,23.0685498 107.014408,23.0685498 C104.624986,23.0685498 103.078749,21.8599052 103.078749,19.4410237 C103.078749,16.1781611 105.666427,13.8436777 111.45964,13.8436777 L112.220019,13.8436777 C112.302825,13.4216872 112.358559,12.9996967 112.358559,12.6907678 C112.358559,11.5657251 111.79564,11.0585403 110.025668,11.0585403 C108.899033,11.0585403 107.547867,11.3276588 106.273137,11.7615924 C106.166409,11.7982051 106.048511,11.7801439 105.957638,11.71326 C105.866765,11.646376 105.814474,11.5391758 105.817706,11.4263886 L105.849555,9.98923223 Z M111.233517,16.036436 C108.393441,16.036436 106.311355,16.964019 106.311355,19.0166445 C106.311355,19.9179526 106.847204,20.4800758 108.055848,20.4800758 C109.207962,20.4800758 110.418199,19.8892891 111.176986,19.1018389 L111.794047,16.036436 L111.233517,16.036436 Z M120.795981,8.97645498 C121.067488,8.97645498 121.280076,9.20974408 121.253005,9.48125118 L121.161441,10.4398863 L121.188512,10.4398863 C122.565953,9.28618009 124.339109,8.52898578 126.054142,8.52898578 C128.191962,8.52898578 129.59727,9.76470142 129.59727,11.7345213 C129.59727,12.6899716 129.457934,13.4766256 129.289137,14.3771374 L127.808986,22.1210616 C127.752264,22.4082336 127.501358,22.6158801 127.208645,22.6178957 L125.152834,22.6178957 C125.02826,22.6182026 124.910142,22.562508 124.831123,22.4662025 C124.752103,22.369897 124.720547,22.2431777 124.745175,22.1210616 L126.109877,15.0515261 C126.251602,14.3492701 126.364664,13.5610237 126.364664,13.0832986 C126.364664,12.0434502 125.800948,11.5091943 124.619374,11.5091943 C123.327128,11.5091943 121.863697,12.1819905 120.823848,13.1669005 L119.11837,22.1210616 C119.0629,22.4083229 118.812185,22.6163631 118.519621,22.6178957 L116.464607,22.6178957 C116.339678,22.6185757 116.221044,22.5631298 116.14143,22.4668526 C116.061816,22.3705754 116.029635,22.2436402 116.053763,22.1210616 L118.478218,9.47408531 C118.53278,9.18616904 118.783928,8.97743568 119.076967,8.97645498 L120.795981,8.97645498 Z M134.717687,8.97645498 C134.847298,8.97700923 134.97071,9.03200592 135.057783,9.12801381 C135.144857,9.22402171 135.187576,9.35220218 135.175507,9.48125118 L135.082351,10.4398863 L135.110218,10.4398863 C136.488455,9.28618009 138.259223,8.52898578 139.974256,8.52898578 C142.112872,8.52898578 143.518976,9.76470142 143.518976,11.7345213 C143.518976,12.6899716 143.377251,13.4766256 143.210047,14.3771374 L141.7291,22.1210616 C141.672943,22.40857 141.421696,22.6164984 141.128758,22.6178957 L139.072948,22.6178957 C138.948359,22.6177578 138.830325,22.5620518 138.75102,22.4659621 C138.671715,22.3698724 138.639406,22.2434157 138.6629,22.1210616 L140.032379,15.0515261 C140.172512,14.3492701 140.284777,13.5610237 140.284777,13.0832986 C140.284777,12.0434502 139.721858,11.5091943 138.540284,11.5091943 C137.247242,11.5091943 135.785403,12.1819905 134.743962,13.1669005 L133.040076,22.1210616 C132.984146,22.409032 132.732289,22.6171891 132.438938,22.6178957 L130.383128,22.6178957 C130.258399,22.6179952 130.140143,22.5623904 130.060657,22.4662689 C129.981172,22.3701474 129.948764,22.2435525 129.972284,22.1210616 L132.398332,9.47408531 C132.453063,9.18528671 132.70553,8.97629019 132.999469,8.97645498 L134.717687,8.97645498 Z M147.879014,17.1041517 C147.831242,17.5157915 147.839204,17.9322085 147.906882,18.3422559 C148.160076,19.7196967 149.228588,20.3948815 151.028019,20.3948815 C152.284436,20.3948815 153.602957,20.2014028 154.761441,19.8327583 C154.984379,19.7618957 155.21528,19.9330806 155.185024,20.1655735 L154.997915,21.7221611 C154.961289,22.0263128 154.76781,22.2962275 154.477194,22.3981422 C153.203261,22.8432227 151.762123,23.0669573 150.408569,23.0669573 C146.528645,23.0669573 144.644019,21.4076588 144.644019,17.64 C144.644019,14.3763412 145.710938,11.3682654 148.019147,9.76549763 C149.172057,8.94858768 150.606825,8.52898578 152.406256,8.52898578 C155.668322,8.52898578 157.102294,10.3825592 157.102294,13.1406256 C157.102294,14.0905024 156.989232,15.3548815 156.72728,16.6343886 C156.669156,16.9170427 156.407204,17.1041517 156.118976,17.1041517 L147.879014,17.1041517 Z M153.783697,14.8827299 C153.927014,14.3508626 154.002654,13.8022749 154.009024,13.2512986 C154.009024,11.985327 153.447697,11.0856114 152.013725,11.0856114 C149.932436,11.0856114 148.665668,12.6047773 148.216607,14.8827299 L153.783697,14.8827299 Z M162.139905,8.97645498 C162.270532,8.97653402 162.395227,9.03099957 162.484054,9.12677559 C162.572881,9.22255161 162.617817,9.35098846 162.608076,9.48125118 L162.530047,10.580019 L162.585782,10.580019 C163.627223,9.31404739 165.147185,8.66752607 166.58036,8.66752607 C166.716885,8.66689791 166.85339,8.67114707 166.989611,8.6802654 C167.257934,8.69698578 167.409213,8.97963981 167.328796,9.23522275 L166.759507,11.0545592 C166.669536,11.3451754 166.386882,11.5298957 166.08273,11.5426351 C164.662294,11.6039431 163.28963,12.0100095 162.361251,12.6621043 L160.545896,22.1210616 C160.489338,22.408986 160.237387,22.616945 159.943962,22.6178957 L157.889744,22.6178957 C157.765055,22.6180458 157.646834,22.5624185 157.567465,22.4662515 C157.488097,22.3700846 157.455901,22.2434593 157.479697,22.1210616 L159.904948,9.47408531 C159.960084,9.18650772 160.210886,8.97806219 160.503697,8.97645498 L162.139905,8.97645498 Z M22.4905024,11.7146161 C26.2963791,7.90794313 31.2886066,6.01535545 36.2792417,6.0201327 L36.3190521,6.02092891 C36.772891,7.08466351 37.036436,8.22085308 37.0977441,9.37615166 C36.8325452,9.36297206 36.5670617,9.35633497 36.3015355,9.35624645 L36.2792417,9.35783886 L36.2585403,9.35624645 C31.979176,9.34515683 27.8731386,11.0461148 24.8552417,14.0801517 C21.821034,17.0976725 20.1197853,21.203433 20.1305403,25.482654 L20.1329289,25.539981 L16.7919659,25.539981 C16.7785024,20.5381991 18.6718863,15.5300474 22.4897062,11.7138199 L22.4905024,11.7146161 Z M42.2707109,18.1002085 C42.2945972,17.8382559 42.3073365,17.5731185 42.3073365,17.3047962 C42.3073365,16.0276777 42.0135355,14.8206256 41.4928152,13.7433555 C39.8501316,13.019788 38.0742194,12.647953 36.2792417,12.6517536 C32.8662431,12.6384459 29.5895587,13.9901141 27.1785782,16.4058768 C24.7542823,18.8252338 23.4016611,22.1158663 23.4236588,25.5407773 L26.7756967,25.5407773 C26.7613649,23.088455 27.6770047,20.6345403 29.5425213,18.7690237 C31.287332,17.0253813 33.6447057,16.0329984 36.1112417,16.0037915 L36.1112417,16.0014028 L36.2792417,16.0029953 L36.4488341,16.0014028 L36.4488341,16.0037915 C38.5165877,16.0340474 40.5755829,16.7307299 42.2707109,18.1002085 Z M8.81482464,14.1852512 L8.81323223,14.1717156 L8.81482464,14.1852512 Z M40.8423128,20.9458578 C39.6757287,19.7759239 38.1006952,19.104294 36.4488341,19.0723791 L36.4488341,19.0739716 L36.2792417,19.0723791 L36.1104455,19.0739716 L36.1104455,19.0723791 C34.4589149,19.1047476 32.8842926,19.7763239 31.717763,20.9458578 C30.5000376,22.1628911 29.8253368,23.8200712 29.846673,25.5415735 L33.0633555,25.5415735 C33.2743507,24.4666919 33.4694218,23.9236777 34.0825024,23.3098009 C34.6660079,22.7311382 35.4583652,22.4124727 36.2800379,22.4260095 C37.1017106,22.4124727 37.894068,22.7311382 38.4775735,23.3098009 C38.6869763,23.52 38.8541801,23.7540853 38.9887393,24.0017062 C39.9240927,23.311357 40.6985634,22.4263253 41.2587299,21.4076588 C41.127527,21.2470359 40.9885557,21.0929186 40.8423128,20.9458578 Z M13.6358673,25.4842464 C13.6358673,13.665327 22.6983128,3.96591469 34.2536872,2.95074882 C32.3942082,1.0607149 29.853061,-0.00256739692 27.2016682,3.53584586e-16 C22.1202654,3.53584586e-16 17.9338009,3.82180095 17.3541611,8.74635071 C16.4627739,8.18656138 15.4313143,7.89012369 14.3787299,7.89122275 C11.2814787,7.89122275 8.46130806,10.9900664 8.81482464,14.1852512 C6.69349539,13.0761358 4.11663777,13.3290226 2.25139519,14.8293708 C0.386152611,16.3297191 -0.413127409,18.7925017 0.21557529,21.1022437 C0.844277988,23.4119856 2.78152626,25.129896 5.14987678,25.4778768 C5.37838863,25.5176872 5.61327014,25.5415735 5.85292891,25.5415735 L13.6358673,25.5415735 L13.6358673,25.482654 L13.6358673,25.4842464 Z M8.80606635,14.1072227 L8.81323223,14.1709194 L8.80606635,14.1072227 Z" id="Shape"></path>
                </g>
            </g>
        </g>
    </g>
</svg>