<?xml version="1.0" encoding="UTF-8"?>
<svg width="131px" height="28px" viewBox="0 0 131 28" version="1.1" xmlns="http://www.w3.org/2000/svg" xmlns:xlink="http://www.w3.org/1999/xlink">
    <!-- Generator: Sketch 48.2 (47327) - http://www.bohemiancoding.com/sketch -->
    <title>svg</title>
    <desc>Created with Sketch.</desc>
    <defs></defs>
    <g id="Enterprise-Landing" stroke="none" stroke-width="1" fill="none" fill-rule="evenodd" transform="translate(-454.000000, -1139.000000)">
        <g id="03-customers" transform="translate(241.000000, 1073.000000)">
            <g id="EE-logo-wework" transform="translate(193.000000, 58.000000)">
                <rect id="safe" fill-opacity="0.04" fill="#FFFFFF" x="0" y="0" width="170" height="50"></rect>
                <g id="svg" transform="translate(20.000000, 8.000000)" fill="#000000" fill-rule="nonzero">
                    <path d="M11.1697159,13.4052192 C11.9820968,13.4052192 12.6911608,13.4335916 13.319553,13.5485 C14.214021,13.705967 14.9712052,14.9557728 14.9712052,15.5657801 C14.9712052,15.8778769 14.9712052,16.2240206 14.8353367,16.72905 C14.6145502,17.5036175 13.0973512,20.2897907 12.4661285,21.3381521 C11.7061137,20.1025326 9.9171776,16.612723 9.29869256,15.2536834 C9.02978602,14.6833974 8.89391745,14.2095777 8.89391745,13.9769238 C8.89391745,13.5485 9.743096,13.4052192 11.1697159,13.4052192 Z M1.03193944,13.4052192 C1.79053894,13.5938959 2.23494238,13.7513629 2.85767331,14.8692368 C5.04996925,18.9023786 7.24509578,23.3483392 9.38077982,27.7219501 C9.64968636,27.9489296 9.96388242,28 10.4181929,28 C10.8569352,28 11.1683007,27.9489296 11.4485296,27.7233688 C12.4661285,25.798299 15.150948,20.6316785 16.3086614,18.6257473 C17.6560247,21.1054982 19.9756974,25.6309016 20.9168703,27.7233688 C21.1772851,27.9503482 21.4999729,28 21.9401305,28 C22.3859492,28 22.7072218,27.9489296 22.9662212,27.7233688 C24.8612176,23.5678834 26.8588175,19.4601814 28.9571758,15.4040573 C29.6733164,13.9769238 29.9832666,13.5938959 31.4594219,13.3186832 L32.0849835,13.2080308 C32.4416385,12.8491194 32.3496441,12.0078767 31.9533608,11.8461538 C30.969729,11.924178 29.809185,11.9638995 28.5056959,11.9638995 C27.3904414,11.9638995 26.3261376,11.924178 24.8457364,11.8461538 C24.3985024,12.0078767 24.3985024,12.9313995 24.6716548,13.2080308 L25.4245931,13.3541488 C26.1930997,13.5116158 26.5440935,13.705967 26.5440935,13.9031554 C26.5440935,14.1741122 26.4082249,14.7160257 26.1308266,15.4040573 C25.4245931,17.1957766 24.7240208,19.0953111 23.6384876,21.3381521 C22.6591016,19.4740831 21.4108092,16.9631226 20.601259,15.1018908 C20.3380136,14.4479062 20.2474346,14.2081591 20.2474346,13.9031554 C20.2474346,13.705967 20.8659196,13.5116158 21.9005021,13.3186832 L22.565692,13.2080308 C22.8883798,13.0505637 22.922347,11.8929684 22.432654,11.8461538 C19.7971415,11.9241093 17.160631,11.963362 14.5239712,11.9638995 L5.49861858,11.9638995 C3.621934,11.9638995 2.19531405,11.924178 0.363918989,11.8461538 C-0.0932221262,12.040505 -0.0932221262,12.8916781 0.216728042,13.2080308 L1.03193944,13.4052192 Z" id="Shape"></path>
                    <path d="M38.2479226,13.5811557 C39.7335718,13.5811557 40.5729843,14.401113 40.5729843,15.6455186 C40.5729843,16.0231124 40.4854297,16.4034623 40.267238,16.5109524 C39.7766542,16.7755437 39.0762172,16.8458257 38.4633348,16.8458257 L36.8428794,16.8458257 C35.4308873,16.8458257 34.8249537,16.8182641 34.8249537,16.2849474 C34.8249537,15.0777499 36.4051062,13.5797777 38.2493124,13.5797777 L38.2479226,13.5811557 Z M38.2020607,27.9490111 C40.8328687,27.9490111 44.0890669,26.8561941 45.8832419,23.6604281 C45.8832419,23.0196212 45.2175488,22.7164438 44.7408625,22.7867258 C43.5554006,24.5244839 41.8821345,24.7435985 40.6577595,24.7435985 C36.5802155,24.7435985 34.4677864,22.0025987 34.4677864,19.1816702 C34.4677864,18.5808276 34.5595103,18.5064114 35.5712527,18.5064114 L43.986225,18.5064114 C45.3565244,18.5064114 45.5705468,17.979985 45.5705468,17.2661399 C45.5705468,14.3652829 43.1106787,11.8461538 38.5467202,11.8461538 C33.0710817,11.8461538 29.0769231,15.5352723 29.0769231,20.2772433 C29.0769231,24.3770294 32.2803106,27.9490111 38.2020607,27.9490111 Z M56.7789286,13.8223196 C57.5808177,13.8223196 58.2770855,13.8498812 58.8941371,13.9615057 C59.7724629,14.1144725 60.5173721,15.3285604 60.5173721,15.9211345 C60.5173721,16.2243119 60.5173721,16.5605633 60.386735,17.0511596 C60.1615946,17.8035909 58.6731659,20.5101387 58.0616733,21.5285394 C57.3070358,20.3282323 55.5601126,16.938157 54.9458405,15.617957 C54.6873458,15.0639691 54.54976,14.6036906 54.54976,14.3776856 C54.54976,13.9615057 55.3780546,13.8223196 56.7789286,13.8223196 Z M46.8254964,13.8223196 C47.5773544,14.0056042 48.0095685,14.158571 48.6238406,15.2444975 C50.7696238,19.1623771 52.9306943,23.4812778 55.0306156,27.7298964 C55.2974487,27.9503891 55.603195,28 56.0423579,28 C56.4773515,28 56.7789286,27.9503891 57.0485412,27.7312745 C58.0630631,25.8612208 60.6897018,20.8422559 61.833471,18.8936516 C63.1537391,21.3025344 65.4246004,25.6986075 66.3487881,27.7312745 C66.6128417,27.9517672 66.918588,28 67.3549714,28 C67.7983035,28 68.1068294,27.9503891 68.3667137,27.7312745 C70.2297155,23.6951235 72.1921766,19.7048456 74.2523302,15.7640334 C74.954157,14.3776856 75.2571238,14.0056042 76.7038597,13.7382568 L77.3236909,13.6307666 C77.6697401,13.2821125 77.5780162,12.4649115 77.1888845,12.3078104 C76.2188349,12.3836048 75.084794,12.422191 73.8062185,12.422191 C72.6074222,12.4165119 71.4090059,12.3783708 70.2123096,12.3078104 C69.7675877,12.4649115 69.7675877,13.3620411 70.0372004,13.6307666 L70.7821096,13.7727088 C71.5297983,13.9256756 71.8772373,14.1144725 71.8772373,14.3060255 C71.8772373,14.5692386 71.7452105,15.095665 71.4867158,15.7640334 C70.7821096,17.5045477 70.0788931,19.3497959 69.0226785,21.5285394 C68.0609674,19.7177431 66.8352027,17.2785426 66.0458213,15.4705025 C65.7789881,14.835208 65.6914335,14.6023125 65.6914335,14.3060255 C65.6914335,14.1144725 66.3015364,13.9256756 67.317448,13.7382568 L67.9706333,13.6307666 C68.2791591,13.4777998 68.325021,12.353287 67.8399962,12.3078104 C65.0354687,12.3836048 62.8340953,12.422191 60.0740399,12.422191 L51.2101764,12.422191 C49.528836,12.42241 47.8477131,12.3842731 46.1681418,12.3078104 C45.7331482,12.4966073 45.7331482,13.3234549 46.0388945,13.6307666 L46.8254964,13.8223196 Z" id="Shape"></path>
                    <path d="M84.4108821,13.5866496 C86.9694327,13.5866496 88.2322979,16.7496791 88.2822418,20.4159178 C88.3207699,23.8139627 87.4603092,26.2650341 84.8903428,26.2650341 C82.2889831,26.2650341 80.7949494,23.3536092 80.7949494,19.3970574 C80.7949494,15.2884369 82.4259719,13.5852671 84.4108821,13.5852671 L84.4108821,13.5866496 Z M84.4108821,28 C89.9446576,28 94.7692308,25.3982423 94.7692308,19.8809124 C94.7692308,14.5612718 89.9860396,11.8461538 84.6748709,11.8461538 C79.3565673,11.8461538 74.2651514,14.8253185 74.3079604,20.2265232 C74.3607581,25.4300385 79.0397808,28 84.4108821,28 Z" id="Shape"></path>
                    <path d="M101.654519,14.5004032 C101.919037,14.5004032 102.298858,14.5413751 103.279608,15.2460914 C103.828991,15.6967821 104.344462,15.9207617 104.948105,15.9207617 C106.315459,15.9207617 107.692308,15.2133139 107.692308,13.4965922 C107.692308,12.0885253 106.49316,11.297768 105.327925,11.297768 C103.535987,11.297768 102.298858,12.5269244 101.134979,13.1578913 C100.795854,13.0896048 100.706325,12.9762493 100.706325,12.7126636 C100.706325,12.3794256 100.794497,11.8618142 100.873174,11.1092974 C100.706325,10.8880492 100.443163,10.7692308 100.113534,10.7692308 C98.7800925,11.5258448 95.8269886,12.5269244 93.8505659,13.0172212 C93.5521355,13.2357379 93.5521355,13.9076767 93.8505659,14.133022 L94.4609916,14.4689914 C95.270823,14.9169507 95.270823,15.3621784 95.270823,16.8562863 L95.270823,22.483091 C95.270823,25.0916339 95.0985473,25.4262376 93.6837162,25.5436903 L92.8684587,25.6119768 C92.5239073,25.8359564 92.5239073,26.6990973 92.9132233,26.9230769 C94.5971692,26.8404788 96.2829724,26.8022253 97.9689046,26.8083557 C99.9765269,26.8083557 101.693858,26.8411332 103.751671,26.9217112 C104.136917,26.6990973 104.136917,25.8359564 103.791009,25.6119768 L102.420943,25.5081814 C101.007468,25.3893629 100.833836,25.0902682 100.833836,22.483091 L100.833836,16.7429307 C100.833836,15.3280352 101.050876,14.5004032 101.655876,14.5004032" id="Shape"></path>
                    <path d="M119.15655,25.5010109 L118.576117,25.6177989 C118.212814,25.9544232 118.300802,26.73759 118.750673,26.9230769 C120.005204,26.8488822 121.613103,26.8131588 124.268337,26.8131588 C126.865386,26.8131588 128.520118,26.8488822 129.905211,26.9230769 C130.355082,26.7788094 130.447327,25.8774805 130.082605,25.6177989 L129.417022,25.4996369 C128.254736,25.31415 127.404664,25.1204193 126.777399,24.6409013 C125.650592,23.7794178 121.706767,18.6750937 120.912042,17.4756119 C120.68072,17.176085 120.585637,16.9535007 120.585637,16.8367127 C120.585637,16.7267945 120.632469,16.578405 120.852438,16.3475769 C121.482541,15.8295876 122.166573,15.2566393 123.86246,14.1698235 C125.06732,13.3894047 126.016733,13.015683 126.866805,12.8617976 L128.294473,12.597994 C128.615201,12.3053369 128.571207,11.467211 128.112821,11.2858461 C125.476036,11.6265923 121.755018,11.8107052 119.646158,11.8107052 L118.576117,11.8107052 C118.129084,11.9673386 118.079414,12.7862288 118.482453,13.1228532 L119.606422,13.2794865 C120.005204,13.309714 120.452237,13.4581035 120.452237,13.6504603 C120.452237,13.8757925 120.236525,14.2852376 119.379357,15.1425992 L117.503238,16.991972 C116.603495,17.8507076 115.662597,18.0389424 114.900512,18.0389424 C114.413743,18.0389424 114.26899,17.9262763 114.26899,17.5127093 L114.26899,5.73910142 C114.26899,3.37311324 114.325756,1.79578778 114.413743,0.261055607 C114.237768,0.0686988439 113.914201,0 113.647401,0 C111.356889,0.817516242 108.630697,1.72708894 106.795733,2.09256679 C106.477843,2.3233949 106.477843,3.0007655 106.795733,3.21373192 L107.556399,3.59844544 C108.449046,4.05048384 108.449046,4.46130292 108.449046,5.96992953 L108.449046,22.463148 C108.449046,25.0874438 108.268813,25.3883448 106.64956,25.5436041 L105.798069,25.6177989 C105.4447,25.8376352 105.4447,26.7032406 105.843482,26.9230769 C107.665462,26.8444684 109.489115,26.8078186 111.312895,26.8131588 C113.376343,26.8131588 115.2553,26.8488822 116.69574,26.9230769 C117.093103,26.7032406 117.093103,25.8376352 116.738315,25.6177989 L116.0259,25.5436041 C114.450641,25.3883448 114.26899,25.0860698 114.26899,22.463148 L114.26899,20.2922645 C114.26899,19.5736746 114.496054,19.3909357 114.805429,19.3909357 C115.2553,19.3909357 115.615765,19.5420731 115.935074,19.9432744 L119.111138,24.0033761 C119.470183,24.4485446 119.870384,25.0475985 119.870384,25.2097278 C119.870384,25.3484994 119.606422,25.4185722 119.15655,25.4996369" id="Shape"></path>
                </g>
            </g>
        </g>
    </g>
</svg>