<svg width="551" height="481" xmlns="http://www.w3.org/2000/svg" xmlns:xlink="http://www.w3.org/1999/xlink"><defs><radialGradient cx="49.138%" cy="51.363%" fx="49.138%" fy="51.363%" r="54.723%" id="a"><stop stop-color="#2B303B" offset="0%"/><stop stop-color="#2B303B" offset="8.552%"/><stop stop-color="#2B303B" stop-opacity="0" offset="77.226%"/><stop stop-color="#00FF6E" stop-opacity=".2" offset="100%"/></radialGradient><path d="M184.573 339.254a4.04 4.04 0 0 0 4.04-4.037 4.04 4.04 0 0 0-4.04-4.038 4.04 4.04 0 0 0-4.04 4.038 4.04 4.04 0 0 0 4.04 4.037z" id="b"/></defs><g fill="none" fill-rule="evenodd"><path fill="#181B21" d="M237.81 171.945l80.067.699L374 229.754l-.699 80.068-57.11 56.123-80.068-.699L180 308.136l.699-80.069z"/><path fill="#181B21" opacity=".3" d="M232.43 151.945l96.165.839L396 221.376l-.84 96.164-68.59 67.405-96.165-.84L163 315.515l.84-96.164z"/><path fill="#181B21" opacity=".3" d="M215.058 108.945l131.658 1.149L439 204.003l-1.149 131.658-93.909 92.284-131.658-1.15L120 332.888l1.149-131.658z"/><path stroke="#00FF6E" stroke-width="2" fill="url(#a)" stroke-dasharray="2,2" d="M270.564 475.85l-19.98-.302L134 356.911l1.452-166.327L254.089 74l166.327 1.452L537 194.089l-1.452 166.327L416.911 477l-13.546-.274" transform="translate(-58 -6.055)"/><path fill="#2B303B" d="M137.136 144.445l6.364-6.364 6.364 6.364-6.364 6.364zM141.136 396.445l6.364-6.364 6.364 6.364-6.364 6.364zM398.136 395.445l6.364-6.364 6.364 6.364-6.364 6.364zM404.136 143.445l6.364-6.364 6.364 6.364-6.364 6.364zM275 84.945h11v11h-11z"/><g transform="translate(10 32.945)"><path stroke="#27D2FF" stroke-width="2" d="M270.169 6.826l-.117 96.091 56.97.72 32.774 32.793"/><path stroke="#8FB1F9" stroke-width="2" d="M95.042 72.56l73.021 73.188 45.295-44.27 42.935.012"/><path stroke="#1192FF" stroke-width="2" d="M440.57 72.06l-73.073 73.074 34.668 34.668-.188 109.626-32.434 32.416"/><path stroke="#3244FF" stroke-width="2" d="M160.602 157.255l-23.132 23.132.188 109.626 37.052 37.034-87.707 77.727"/><path stroke="#00FDFF" stroke-width="2" d="M181.734 333.125l32.668 32.668 109.626-.188 37.033-37.052 76.575 76.553"/><path d="M160.64 161.9a4.04 4.04 0 0 0 4.04-4.039 4.04 4.04 0 0 0-4.04-4.037 4.04 4.04 0 0 0-4.04 4.037 4.04 4.04 0 0 0 4.04 4.038z" fill="#3244FF"/><path d="M255.73 105.37a4.04 4.04 0 0 0 4.04-4.038 4.04 4.04 0 0 0-4.04-4.037 4.04 4.04 0 0 0-4.04 4.037 4.04 4.04 0 0 0 4.04 4.038z" fill="#8FB1F9"/><path d="M84.465 410.476a3.04 3.04 0 0 0 3.04-3.038 3.04 3.04 0 0 0-3.04-3.037 3.04 3.04 0 0 0-3.04 3.037 3.04 3.04 0 0 0 3.04 3.038z" stroke="#3244FF" stroke-width="2"/><path d="M93.31 73.987a3.04 3.04 0 0 0 3.04-3.037 3.04 3.04 0 0 0-3.04-3.038 3.04 3.04 0 0 0-3.04 3.038 3.04 3.04 0 0 0 3.04 3.037z" stroke="#8FB1F9" stroke-width="2"/><path d="M270.04 7.076a3.04 3.04 0 0 0 3.04-3.038A3.04 3.04 0 0 0 270.04 1 3.04 3.04 0 0 0 267 4.038a3.04 3.04 0 0 0 3.04 3.038z" stroke="#27D2FF" stroke-width="2"/><path d="M442.531 72.987a3.04 3.04 0 0 0 3.04-3.037 3.04 3.04 0 0 0-3.04-3.038 3.04 3.04 0 0 0-3.04 3.038 3.04 3.04 0 0 0 3.04 3.037z" stroke="#1192FF" stroke-width="2"/><use fill="#00FDFF" xlink:href="#b"/><path stroke="#00FDFF" stroke-width="2" d="M184.573 338.254a3.04 3.04 0 0 0 3.04-3.037 3.04 3.04 0 0 0-3.04-3.038 3.04 3.04 0 0 0-3.04 3.038 3.04 3.04 0 0 0 3.04 3.037z"/><path d="M205.04 441.076a4.04 4.04 0 0 0 4.04-4.038 4.04 4.04 0 0 0-4.04-4.038 4.04 4.04 0 0 0-4.04 4.038 4.04 4.04 0 0 0 4.04 4.038z" fill="#00FF6E"/><ellipse fill="#1190FB" cx="370.738" cy="320.526" rx="4.04" ry="4.038"/><ellipse fill="#27D2FF" cx="359.194" cy="134.788" rx="4.04" ry="4.038"/><path d="M440.377 410.476a3.04 3.04 0 0 0 3.04-3.038 3.04 3.04 0 0 0-3.04-3.037 3.04 3.04 0 0 0-3.04 3.037 3.04 3.04 0 0 0 3.04 3.038z" stroke="#00FDFF" stroke-width="2"/><path d="M332.04 441.076a3.04 3.04 0 0 0 3.04-3.038 3.04 3.04 0 0 0-3.04-3.038 3.04 3.04 0 0 0-3.04 3.038 3.04 3.04 0 0 0 3.04 3.038z" stroke="#00FF6E" stroke-width="2"/></g><path d="M267.957 274.945h14.51l7.533 9.697-1.296 3.303H269.96l.46-3.303-4.419-7.136 1.957-2.561zm9.815-41.988l7.869-.012L321 275.122l-2.747 12.823h-15.155l.943-3.613L271 244.91l6.772-11.953zm13.618-16.012l15.889 12.926-2.034 2.173 2.755 3.97v4.248l-7.921 6.683-13.323-16.29H279l3.123-5.926 9.267-7.784zm-33.163 40.04l11.504-10.04L285 265.397l-4.335 6.759h-14.08l-9.74 12.836-2.225 2.953H242v-15.75l11.763-15.21h4.464z" fill="#FFF"/><g fill="#FFF"><path d="M261.778 317.945c-1.33 0-2.02-.213-2.59-.804-.855-.85-1.188-2.033-1.188-5.696 0-3.687.333-4.846 1.188-5.72.546-.567 1.26-.78 2.59-.78h4.444c1.33 0 2.02.213 2.59.78.855.874 1.188 2.033 1.188 5.72s-.333 4.845-1.188 5.696c-.57.591-1.26.804-2.59.804h-4.444zm-.166-2.863h4.776v-7.28h-4.776v7.28zM281.28 309.075c.002.045.003.092.003.14v8.73H285v-9.155c0-1.91-.219-2.595-.777-3.114-.51-.495-1.24-.731-2.381-.731h-1.627c-.2 0-.382.006-.553.023h-1.087l-1.872 1.64V304.969H273v12.977h3.717v-8.87h-.001v-1.204h4.566v1.204h-.001zM252.279 300.945h4.45l-6.393 7.99 6.664 9.01h-4.721l-5.069-7.08-1.202-.005v7.085H242v-17h4.008v6.59h1.2zM291.621 315.379h4.758v-7.477h-4.758v7.477zm4.735-10.41v1.687l-1.825-1.688-2.72-.023c-1.302 0-2.06.242-2.651.825-.781.824-1.16 2.625-1.16 5.925 0 3.274.308 5.026 1.065 5.827.592.582 1.296.85 2.692.85l4.592.002.007 1.903h-6.732l.005.786 1.646 1.87 5.34.012c1.326 0 2.083-.242 2.556-.752.592-.63.829-1.021.829-3.326V304.97h-3.644z"/></g><text font-family="Roboto-Medium, Roboto" font-size="15" font-weight="400" letter-spacing=".5" fill="#E6E6E6" transform="translate(242 216.945)"><tspan x="64.48" y="97">EE</tspan></text><text opacity=".8" font-family="Roboto-Medium, Roboto" font-size="17" font-weight="400" fill="#FFF" transform="translate(-58 -6.055)"><tspan x="529" y="459">Scalability</tspan></text><text opacity=".8" font-family="Roboto-Medium, Roboto" font-size="17" font-weight="400" fill="#FFF" transform="translate(-58 -6.055)"><tspan x="295.459" y="18">Dev Portal</tspan></text><text opacity=".8" font-family="Roboto-Medium, Roboto" font-size="17" font-weight="400" fill="#00FF6E" transform="translate(-58 -6.055)"><tspan x="286.407" y="482">24/7 Support</tspan></text><text opacity=".8" font-family="Roboto-Medium, Roboto" font-size="17" font-weight="400" fill="#FFF" transform="translate(-58 -6.055)"><tspan x="58.403" y="462">Admin GUI</tspan></text><text opacity=".8" font-family="Roboto-Medium, Roboto" font-size="17" font-weight="400" fill="#FFF" transform="translate(-58 -6.055)"><tspan x="77.939" y="102">Security</tspan></text><text opacity=".8" font-family="Roboto-Medium, Roboto" font-size="17" font-weight="400" fill="#FFF" transform="translate(-58 -6.055)"><tspan x="529" y="111">Analytics</tspan></text></g></svg>