<?xml version="1.0" encoding="UTF-8"?>
<svg viewBox="0 0 551 481" version="1.1" xmlns="http://www.w3.org/2000/svg" xmlns:xlink="http://www.w3.org/1999/xlink">
    <!-- Generator: Sketch 48.2 (47327) - http://www.bohemiancoding.com/sketch -->
    <title>art-cicle</title>
    <desc>Created with Sketch.</desc>
    <defs>
        <radialGradient cx="49.1380013%" cy="51.3630349%" fx="49.1380013%" fy="51.3630349%" r="54.7228092%" id="radialGradient-1">
            <stop stop-color="#2B303B" offset="0%"></stop>
            <stop stop-color="#2B303B" offset="8.55189732%"></stop>
            <stop stop-color="#2B303B" stop-opacity="0" offset="77.2261639%"></stop>
            <stop stop-color="#00FF6E" stop-opacity="0.2" offset="100%"></stop>
        </radialGradient>
        <path d="M184.57349,339.254408 C186.804912,339.254408 188.613836,337.446631 188.613836,335.216625 C188.613836,332.986619 186.804912,331.178841 184.57349,331.178841 C182.342069,331.178841 180.533144,332.986619 180.533144,335.216625 C180.533144,337.446631 182.342069,339.254408 184.57349,339.254408 Z" id="path-2"></path>
    </defs>
    <g id="Enterprise-Landing" stroke="none" stroke-width="1" fill="none" fill-rule="evenodd" transform="translate(-440.000000, -1562.000000)">
        <g id="04-enterprise" transform="translate(0.000000, 1274.000000)">
            <g id="art-cicle" transform="translate(382.000000, 281.944795)">
                <polygon id="Polygon" fill="#181B21" points="295.809456 178 375.877458 178.698743 432 235.809456 431.301257 315.877458 374.190544 372 294.122542 371.301257 238 314.190544 238.698743 234.122542"></polygon>
                <polygon id="Polygon" fill="#181B21" opacity="0.300000012" points="290.430945 158 386.595092 158.839212 454 227.430945 453.160788 323.595092 384.569055 391 288.404908 390.160788 221 321.569055 221.839212 225.404908"></polygon>
                <polygon id="Polygon" fill="#181B21" opacity="0.300000012" points="273.057817 115 404.716027 116.148964 497 210.057817 495.851036 341.716027 401.942183 434 270.283973 432.851036 178 338.942183 179.148964 207.283973"></polygon>
                <polyline id="Polygon" stroke="#00FF6E" stroke-width="2" fill="url(#radialGradient-1)" stroke-dasharray="2,2" points="270.564157 475.849146 250.584455 475.548488 134 356.911285 135.451512 190.584455 254.088715 74 420.415545 75.4515123 537 194.088715 535.548488 360.415545 416.911285 477 403.365402 476.726343"></polyline>
                <rect id="Rectangle" fill="#2B303B" transform="translate(201.500000, 150.500000) rotate(-45.000000) translate(-201.500000, -150.500000) " x="197" y="146" width="9" height="9"></rect>
                <rect id="Rectangle" fill="#2B303B" transform="translate(205.500000, 402.500000) rotate(-45.000000) translate(-205.500000, -402.500000) " x="201" y="398" width="9" height="9"></rect>
                <rect id="Rectangle" fill="#2B303B" transform="translate(462.500000, 401.500000) rotate(-45.000000) translate(-462.500000, -401.500000) " x="458" y="397" width="9" height="9"></rect>
                <rect id="Rectangle" fill="#2B303B" transform="translate(468.500000, 149.500000) rotate(-45.000000) translate(-468.500000, -149.500000) " x="464" y="145" width="9" height="9"></rect>
                <rect id="Rectangle" fill="#2B303B" x="333" y="91" width="11" height="11"></rect>
                <g id="Group" transform="translate(68.000000, 39.000000)">
                    <polyline id="Path-7" stroke="#27D2FF" stroke-width="2" fill-rule="nonzero" transform="translate(300.924818, 85.686273) rotate(-315.000000) translate(-300.924818, -85.686273) " points="223.414826 51.6715114 291.278418 119.701034 332.071776 79.926237 378.43481 79.9392722"></polyline>
                    <polyline id="Path-7" stroke="#8FB1F9" stroke-width="2" fill-rule="nonzero" points="95.0419945 72.5605314 168.063199 145.748111 213.358374 101.477114 256.292661 101.490149"></polyline>
                    <polyline id="Path-7" stroke="#1192FF" stroke-width="2" fill-rule="nonzero" transform="translate(405.061137, 196.956631) rotate(-225.000000) translate(-405.061137, -196.956631) " points="291.637249 260.162821 394.978555 260.162821 394.978555 211.134771 472.628652 133.750441 518.485025 133.763535"></polyline>
                    <polyline id="Path-7" stroke="#3244FF" stroke-width="2" fill-rule="nonzero" transform="translate(126.297314, 283.509771) scale(-1, 1) rotate(-225.000000) translate(-126.297314, -283.509771) " points="61.2789868 397.041985 61.2789868 364.329044 138.929084 286.944715 191.315641 286.957808 184.25924 169.977557"></polyline>
                    <polyline id="Path-7" stroke="#00FDFF" stroke-width="2" fill-rule="nonzero" transform="translate(309.684759, 369.115712) scale(-1, 1) rotate(-135.000000) translate(-309.684759, -369.115712) " points="244.659098 485.039978 244.659098 438.840355 322.309195 361.456026 374.695753 361.469119 374.710419 253.191447"></polyline>
                    <path d="M160.640184,161.899244 C162.871605,161.899244 164.68053,160.091467 164.68053,157.861461 C164.68053,155.631455 162.871605,153.823678 160.640184,153.823678 C158.408763,153.823678 156.599838,155.631455 156.599838,157.861461 C156.599838,160.091467 158.408763,161.899244 160.640184,161.899244 Z" id="Oval" fill="#3244FF"></path>
                    <path d="M255.730245,105.370277 C257.961667,105.370277 259.770591,103.5625 259.770591,101.332494 C259.770591,99.1024875 257.961667,97.2947103 255.730245,97.2947103 C253.498824,97.2947103 251.689899,99.1024875 251.689899,101.332494 C251.689899,103.5625 253.498824,105.370277 255.730245,105.370277 Z" id="Oval" fill="#8FB1F9"></path>
                    <path d="M84.4648022,410.476071 C86.1440808,410.476071 87.5051481,409.115867 87.5051481,407.438287 C87.5051481,405.760708 86.1440808,404.400504 84.4648022,404.400504 C82.7855235,404.400504 81.4244563,405.760708 81.4244563,407.438287 C81.4244563,409.115867 82.7855235,410.476071 84.4648022,410.476071 Z" id="Oval" stroke="#3244FF" stroke-width="2"></path>
                    <path d="M93.3104177,73.9874055 C94.9896963,73.9874055 96.3507636,72.6272015 96.3507636,70.9496222 C96.3507636,69.2720428 94.9896963,67.9118388 93.3104177,67.9118388 C91.631139,67.9118388 90.2700717,69.2720428 90.2700717,70.9496222 C90.2700717,72.6272015 91.631139,73.9874055 93.3104177,73.9874055 Z" id="Oval" stroke="#8FB1F9" stroke-width="2"></path>
                    <path d="M270.040346,7.07556675 C271.719625,7.07556675 273.080692,5.71536273 273.080692,4.03778338 C273.080692,2.36020402 271.719625,1 270.040346,1 C268.361067,1 267,2.36020402 267,4.03778338 C267,5.71536273 268.361067,7.07556675 270.040346,7.07556675 Z" id="Oval" stroke="#27D2FF" stroke-width="2"></path>
                    <path d="M442.531091,72.9874055 C444.21037,72.9874055 445.571437,71.6272015 445.571437,69.9496222 C445.571437,68.2720428 444.21037,66.9118388 442.531091,66.9118388 C440.851812,66.9118388 439.490745,68.2720428 439.490745,69.9496222 C439.490745,71.6272015 440.851812,72.9874055 442.531091,72.9874055 Z" id="Oval" stroke="#1192FF" stroke-width="2"></path>
                    <g id="Oval">
                        <use fill="#00FDFF" fill-rule="evenodd" xlink:href="#path-2"></use>
                        <path stroke="#00FDFF" stroke-width="2" d="M184.57349,338.254408 C186.252769,338.254408 187.613836,336.894204 187.613836,335.216625 C187.613836,333.539045 186.252769,332.178841 184.57349,332.178841 C182.894212,332.178841 181.533144,333.539045 181.533144,335.216625 C181.533144,336.894204 182.894212,338.254408 184.57349,338.254408 Z"></path>
                    </g>
                    <path d="M205.040346,441.075567 C207.271767,441.075567 209.080692,439.26779 209.080692,437.037783 C209.080692,434.807777 207.271767,433 205.040346,433 C202.808924,433 201,434.807777 201,437.037783 C201,439.26779 202.808924,441.075567 205.040346,441.075567 Z" id="Oval" fill="#00FF6E"></path>
                    <ellipse id="Oval" fill="#1190FB" cx="370.738171" cy="320.526448" rx="4.04034591" ry="4.03778338"></ellipse>
                    <ellipse id="Oval" fill="#27D2FF" cx="359.194326" cy="134.788413" rx="4.04034591" ry="4.03778338"></ellipse>
                    <path d="M440.376706,410.476071 C442.055985,410.476071 443.417052,409.115867 443.417052,407.438287 C443.417052,405.760708 442.055985,404.400504 440.376706,404.400504 C438.697428,404.400504 437.336361,405.760708 437.336361,407.438287 C437.336361,409.115867 438.697428,410.476071 440.376706,410.476071 Z" id="Oval" stroke="#00FDFF" stroke-width="2"></path>
                    <path d="M332.040346,441.075567 C333.719625,441.075567 335.080692,439.715363 335.080692,438.037783 C335.080692,436.360204 333.719625,435 332.040346,435 C330.361067,435 329,436.360204 329,438.037783 C329,439.715363 330.361067,441.075567 332.040346,441.075567 Z" id="Oval" stroke="#00FF6E" stroke-width="2"></path>
                </g>
                <g id="Group-3" transform="translate(300.000000, 223.000000)">
                    <path d="M25.95734,58 L40.4666279,58 L48,67.6972316 L46.7044098,71 L27.9594822,71 L28.4192551,67.6972316 L24,60.5609742 L25.95734,58 Z M35.7721863,16.011838 L43.640661,16 L79,58.1772469 L76.2526747,71 L61.0983578,71 L62.0412833,67.3871961 L29,27.9652394 L35.7721863,16.011838 Z M49.3897884,0 L65.2789012,12.9262099 L63.2452886,15.099624 L66,19.0699321 L66,23.3171363 L58.0786014,30 L44.7560874,13.7092836 L37,13.7092836 L40.1230988,7.78458759 L49.3897884,0 Z M16.2268857,40.0408468 L27.731262,30 L43,48.4517927 L38.6648581,55.2111755 L24.5853679,55.2111755 L14.8454215,68.0472052 L12.620259,71 L0,71 L0,55.2507652 L11.763355,40.0408468 L16.2268857,40.0408468 Z" id="Combined-Shape" fill="#FFFFFF"></path>
                    <g id="Group-13" transform="translate(0.000000, 84.000000)" fill="#FFFFFF">
                        <path d="M19.7780521,17 C18.4473979,17 17.7584752,16.7872223 17.1880472,16.1965156 C16.3327497,15.3454047 16,14.1636488 16,10.4998287 C16,6.81270921 16.3327497,5.65459529 17.1880472,4.77984239 C17.7343629,4.21277773 18.4473979,4 19.7780521,4 L24.2216035,4 C25.5522577,4 26.2415248,4.21277773 26.8116083,4.77984239 C27.6672503,5.65459529 28,6.81270921 28,10.4998287 C28,14.1872908 27.6672503,15.3454047 26.8116083,16.1965156 C26.2415248,16.7872223 25.5522577,17 24.2216035,17 L19.7780521,17 Z M19.6120217,14.1376084 L24.3883228,14.1376084 L24.3883228,6.85759469 L19.6120217,6.85759469 L19.6120217,14.1376084 Z" id="Fill-5"></path>
                        <path d="M39.2808768,8.13017627 C39.2822853,8.17498027 39.2833416,8.22183636 39.2833416,8.27040253 L39.2833416,17 L43,17 L43,7.84561957 C43,5.93478032 42.7809795,5.25040779 42.2225124,4.73122862 C41.7122862,4.23599053 40.9837437,4 39.8418087,4 L38.2146483,4 C38.0146424,4 37.832947,4.00615627 37.6618152,4.02291502 L36.5751636,4.02291502 L34.7025734,5.66390424 L34.7025734,4.25616943 L34.7025734,4.02291502 L33.447607,4.02291502 L33.447607,4.02359905 L31,4.02359905 L31,17 L34.7166584,17 L34.7166584,8.13017627 L34.7159541,8.13017627 L34.7159541,6.92594054 L36.7889023,6.92594054 C36.8026351,6.92559853 36.8160157,6.92559853 36.8301006,6.92559853 L37.8744975,6.92559853 C37.8945685,6.92559853 37.9142874,6.92559853 37.9336542,6.92594054 L39.2819332,6.92594054 L39.2819332,8.13017627 L39.2808768,8.13017627 Z" id="Fill-7"></path>
                        <polygon id="Fill-9" points="10.2787687 0 14.729618 0 8.3361289 7.98991251 15 17 10.2787687 17 5.21025774 9.92072054 4.00824494 9.91512095 4.00824494 17 0 17 0 0 4.00824494 0 4.00824494 6.58966547 5.20848591 6.58966547"></polygon>
                        <path d="M49.6211008,14.4337123 L54.3785561,14.4337123 L54.3785561,6.95709764 L49.6211008,6.95709764 L49.6211008,14.4337123 Z M54.3555683,4.02356113 L54.3555683,5.71081936 L52.5309507,4.02356113 L49.8108363,4 C48.5087634,4 47.7515368,4.24264447 47.1596855,4.82499121 C46.3787848,5.64963076 46,7.45047474 46,10.7497363 C46,14.0243817 46.3077627,15.7766968 47.0649893,16.5770719 C47.6568406,17.1594186 48.3608863,17.4266792 49.7573124,17.4266792 L54.3490493,17.4294924 L54.3555683,19.3319658 L47.6239028,19.3319658 L47.6290493,20.1186262 L49.2752538,21.9887469 L54.6152966,22 C55.9407005,22 56.6982702,21.7577072 57.1714081,21.2481538 C57.7632595,20.6172782 58,20.2269371 58,17.9225179 L58,4.02461611 L54.3555683,4.02356113 Z" id="Fill-11"></path>
                    </g>
                    <text id="EE" font-family="Roboto-Medium, Roboto" font-size="15" font-weight="400" letter-spacing="0.5" fill="#E6E6E6">
                        <tspan x="64.4799805" y="97">EE</tspan>
                    </text>
                </g>
                <text id="Scalability" opacity="0.799999952" font-family="Roboto-Medium, Roboto" font-size="17" font-weight="400" line-spacing="24" fill="#FFFFFF">
                    <tspan x="529" y="459">Scalability</tspan>
                </text>
                <text id="Dev-Portal" opacity="0.799999952" font-family="Roboto-Medium, Roboto" font-size="17" font-weight="400" line-spacing="24" fill="#FFFFFF">
                    <tspan x="295.459229" y="18">Dev Portal</tspan>
                </text>
                <text id="24/7-Support" opacity="0.799999952" font-family="Roboto-Medium, Roboto" font-size="17" font-weight="400" line-spacing="24" fill="#00FF6E">
                    <tspan x="286.406738" y="482">24/7 Support</tspan>
                </text>
                <text id="Admin-GUI" opacity="0.799999952" font-family="Roboto-Medium, Roboto" font-size="17" font-weight="400" line-spacing="24" fill="#FFFFFF">
                    <tspan x="58.4033203" y="462">Admin GUI</tspan>
                </text>
                <text id="Security" opacity="0.799999952" font-family="Roboto-Medium, Roboto" font-size="17" font-weight="400" line-spacing="24" fill="#FFFFFF">
                    <tspan x="77.9389648" y="102">Security</tspan>
                </text>
                <text id="Analytics" opacity="0.799999952" font-family="Roboto-Medium, Roboto" font-size="17" font-weight="400" line-spacing="24" fill="#FFFFFF">
                    <tspan x="529" y="111">Analytics</tspan>
                </text>
            </g>
        </g>
    </g>
</svg>
