<svg width="16" height="13" xmlns="http://www.w3.org/2000/svg"><path d="M16 1.539a6.515 6.515 0 0 1-1.885.517A3.295 3.295 0 0 0 15.558.24a6.574 6.574 0 0 1-2.084.796A3.281 3.281 0 0 0 11.077 0a3.282 3.282 0 0 0-3.198 4.03A9.321 9.321 0 0 1 1.113.6 3.283 3.283 0 0 0 2.13 4.984a3.273 3.273 0 0 1-1.486-.41v.041a3.285 3.285 0 0 0 2.632 3.22 3.304 3.304 0 0 1-1.482.056 3.287 3.287 0 0 0 3.066 2.28A6.585 6.585 0 0 1 0 11.53a9.298 9.298 0 0 0 5.032 1.473c6.037 0 9.34-5.001 9.34-9.34 0-.142-.004-.284-.01-.425A6.66 6.66 0 0 0 16 1.538z" fill="#AAB4BB" fill-rule="evenodd"/></svg>