<svg width="16" height="16" xmlns="http://www.w3.org/2000/svg"><path d="M8 0C3.581 0 0 3.672 0 8.203c0 3.623 2.292 6.698 5.471 7.783.4.074.526-.169.526-.386 0-.195.004-.74 0-1.424-2.225.496-2.686-1.08-2.686-1.08-.363-.948-.887-1.2-.887-1.2-.727-.509.054-.499.054-.499.803.058 1.226.845 1.226.845.714 1.253 1.872.891 2.328.682.073-.53.28-.892.508-1.097-1.776-.207-3.644-.91-3.644-4.054 0-.895.312-1.627.823-2.2-.082-.208-.357-1.042.079-2.171 0 0 .672-.22 2.2.841A7.48 7.48 0 0 1 8 3.967c.68.003 1.364.094 2.004.276 1.527-1.061 2.198-.841 2.198-.841.436 1.13.162 1.963.08 2.17.511.574.822 1.306.822 2.201 0 3.152-1.87 3.845-3.653 4.047.287.254.548.747.548 1.512v2.27c0 .22.129.462.535.383C13.71 14.898 16 11.825 16 8.203 16 3.673 12.418 0 8 0z" fill="#AAB4BB" fill-rule="evenodd"/></svg>