<?xml version="1.0" encoding="UTF-8"?>
<svg width="170px" height="50px" viewBox="0 0 170 50" version="1.1" xmlns="http://www.w3.org/2000/svg" xmlns:xlink="http://www.w3.org/1999/xlink">
    <!-- Generator: Sketch 47.1 (45422) - http://www.bohemiancoding.com/sketch -->
    <title>EE-logo-giphy</title>
    <desc>Created with Sketch.</desc>
    <defs></defs>
    <g id="KongHQ.com" stroke="none" stroke-width="1" fill="none" fill-rule="evenodd">
        <g id="Enterprise-Landing" transform="translate(-808.000000, -1131.000000)">
            <g id="logos-customers" transform="translate(241.000000, 1073.000000)">
                <g id="EE-logo-giphy" transform="translate(567.000000, 58.000000)">
                    <rect id="safe" fill-opacity="0.04" fill="#FFFFFF" x="0" y="0" width="170" height="50"></rect>
                    <g id="giphy-large" transform="translate(23.000000, 13.000000)" fill-rule="nonzero">
                        <g id="Group" transform="translate(31.612529, 2.320186)" fill="#000000">
                            <rect id="Rectangle-path" x="22.7937935" y="0.716067285" width="5.77581206" height="19.8831206"></rect>
                            <polygon id="Shape" points="64.3825406 0.716067285 64.3825406 8.22824826 57.4849188 8.22824826 57.4849188 0.716067285 51.7085267 0.716067285 51.7085267 20.5988979 57.4849188 20.5988979 57.4849188 13.237529 64.3825406 13.237529 64.3825406 20.5988979 70.1583527 20.5988979 70.1583527 0.716067285"></polygon>
                            <polygon id="Shape" points="85.5368329 20.5988979 85.5368329 12.8169954 93.2354988 0.716067285 86.6908353 0.716067285 82.649942 7.375 78.6096288 0.716067285 72.0661253 0.716067285 79.7642111 12.8169954 79.7642111 20.5988979"></polygon>
                            <path d="M43.1983759,0.716067285 C40.7447796,0.716067285 38.0553944,0.716067285 38.0553944,0.716067285 L32.2816125,0.716067285 L32.2816125,20.5991879 L38.0553944,20.5991879 L38.0553944,15.3312065 C38.0553944,15.3312065 40.7447796,15.3312065 43.1983759,15.3312065 C45.6516821,15.3312065 49.8851508,12.9712877 49.8851508,8.01537123 C49.8851508,3.05945476 45.6516821,0.716067285 43.1983759,0.716067285 Z M41.7508701,10.5 C41.0756961,10.5 38.0553944,10.5 38.0553944,10.5 L38.0553944,5.54669374 C38.0553944,5.54669374 41.0756961,5.54669374 41.7508701,5.54669374 C43.1719838,5.54669374 44.3051044,6.78277262 44.3051044,8.01566125 C44.3051044,9.24738979 43.1719838,10.5 41.7508701,10.5 Z" id="Shape"></path>
                            <path d="M19.5542343,17.0478538 L19.5542343,8.36890951 L9.79843387,8.36890951 L9.79843387,12.8169954 L14.8416473,12.8169954 L14.8416473,15.4361949 C14.8416473,15.4361949 12.9825986,16.3857309 11.2465197,16.3857309 C9.50986079,16.3857309 5.66705336,15.7662413 5.66705336,10.3109049 C5.66705336,5.64008121 9.30423434,4.77233179 11.0812065,4.77233179 C13.849768,4.77233179 15.6267401,6.67285383 15.6267401,6.67285383 L18.8109049,3.32569606 C18.8109049,3.32569606 16.2891531,0.101218097 10.9564965,0.101218097 C5.62616009,0.101218097 0.0446635731,3.43909513 0.0446635731,10.6569026 C0.0446635731,17.337007 4.46606729,21.262471 10.75029,21.262471 C17.9814385,21.2633411 19.5542343,17.0478538 19.5542343,17.0478538 Z" id="Shape"></path>
                        </g>
                        <g id="Group">
                            <rect id="Rectangle-path" fill="#00FF99" x="0" y="2.79843387" width="2.57888631" height="20.1206497"></rect>
                            <rect id="Rectangle-path" fill="#9933FF" x="18.0533643" y="7.95649652" width="2.5800464" height="14.962587"></rect>
                            <rect id="Rectangle-path" fill="#00CCFF" x="0" y="22.9190835" width="20.6337007" height="2.57946636"></rect>
                            <rect id="Rectangle-path" fill="#FFFF99" x="0" y="0.218677494" width="12.8953016" height="2.57975638"></rect>
                            <polygon id="Shape" fill="#FF6666" points="18.0533643 5.37790023 18.0533643 2.79843387 15.475348 2.79843387 15.475348 0.218677494 12.8953016 0.218677494 12.8953016 7.95649652 20.6337007 7.95649652 20.6337007 5.37790023"></polygon>
                            <rect id="Rectangle-path" fill="#4C197F" x="18.0533643" y="7.95649652" width="2.5800464" height="2.57975638"></rect>
                        </g>
                    </g>
                </g>
            </g>
        </g>
    </g>
</svg>