<svg width="42" height="39" xmlns="http://www.w3.org/2000/svg"><path d="M13.54 29.908l.073.085-5.404 6.945L6.626 39 0 38.978v-8.985l6.485-8.277.34.393-.327-.434h2.47l6.401-5.483 8.273 10.248-2.266 3.468H13.54zm6.712-22.266l1.778-3.278L27.306.055l9.046 7.154-1.158 1.202 1.569 2.198v2.35l-4.51 3.7-7.585-9.017h-4.416zm-4.223 7.519l3.743-6.55h4.447l17.484 21.25v8.94h-9.175l.967-2.04-17.466-21.6zm-3.141 17.886l1.439-1.87 7.162-.04.189.04 4.477 5.706-.731 2.067H14.54l.799-2.067-2.452-3.836z" fill="#2D313C" fill-rule="evenodd"/></svg>