<svg width="30" height="29" xmlns="http://www.w3.org/2000/svg"><path d="M9.74 21.475l.053.061-3.888 4.996-1.139 1.483L0 28v-6.463l4.665-5.954.244.283-.235-.313h1.778l4.604-3.944 5.951 7.373-1.63 2.494H9.74zM14.57 5.458l1.279-2.359L19.643 0l6.507 5.146-.833.865 1.129 1.581v1.69L23.2 11.945l-5.456-6.486H14.57zm-3.039 5.408l2.694-4.711h3.199L30 21.44v6.43h-6.6l.695-1.467L11.53 10.866zM9.271 23.733l1.035-1.345 5.152-.028.136.028 3.221 4.105-.526 1.486H10.46l.575-1.486-1.764-2.76z" fill="#004B80" fill-rule="evenodd"/></svg>